<svg width="375" height="111" viewBox="0 0 375 111" fill="none" xmlns="http://www.w3.org/2000/svg">
<path d="M-6 110.621L375 79.125V110.621H-6Z" fill="#0950BA"/>
<path d="M131.937 83.8419C131.92 84.1713 132.06 84.4846 132.314 84.686C132.568 84.8874 132.907 84.953 133.226 84.8628C135.114 84.3293 137.034 85.664 137.321 88.0322L138.346 99.3764C138.487 101.131 139.964 102.468 141.779 102.108C143.567 101.845 144.646 100.104 144.417 98.3947L143.391 87.0538L143.389 87.0322C142.774 81.5319 138.295 77.4999 133.099 78.2352C132.594 78.3067 132.204 78.7323 132.177 79.2408L131.937 83.8419Z" fill="#DAEAFD" stroke="#0950BA" stroke-width="2.07514" stroke-miterlimit="10" stroke-linejoin="round"/>
<path d="M126.675 86.5739L129.162 87.1528C130.008 87.3506 130.89 87.3793 131.757 87.2372C132.625 87.0952 133.462 86.7852 134.219 86.3251C134.977 85.8649 135.64 85.2636 136.172 84.5556C136.704 83.8476 137.093 83.0468 137.318 82.1989C137.544 81.3527 137.602 80.4758 137.487 79.6184C137.373 78.7609 137.088 77.9399 136.65 77.2023C136.212 76.4647 135.629 75.825 134.935 75.32C134.24 74.8149 133.447 74.4544 132.602 74.2591L126.153 72.7576" fill="#FFD770"/>
<path d="M126.675 86.5739L129.162 87.1528C130.008 87.3506 130.89 87.3793 131.757 87.2372C132.625 87.0952 133.462 86.7852 134.219 86.3251C134.977 85.8649 135.64 85.2636 136.172 84.5556C136.704 83.8476 137.093 83.0468 137.318 82.1989C137.544 81.3527 137.602 80.4758 137.487 79.6184C137.373 78.7609 137.088 77.9399 136.65 77.2023C136.212 76.4647 135.629 75.825 134.935 75.32C134.24 74.8149 133.447 74.4544 132.602 74.2591L126.153 72.7576" stroke="#0950BA" stroke-width="2.07514" stroke-linecap="round" stroke-linejoin="round"/>
<path d="M119.576 102.866C118.786 103.141 117.947 103.202 117.142 103.041C116.327 102.886 115.575 102.511 114.961 101.955C114.347 101.398 113.893 100.679 113.646 99.8724L112.09 94.9334L109.077 85.22L120.45 89.0861L121.776 93.359L122.034 93.4094C122.956 93.5873 123.785 94.0742 124.392 94.7945C124.999 95.5148 125.351 96.4281 125.392 97.3927C125.433 98.3572 125.162 99.319 124.62 100.129C124.079 100.939 123.297 101.551 122.397 101.871L119.576 102.866Z" fill="#FFD770" stroke="#0950BA" stroke-width="2.07514" stroke-linecap="round" stroke-linejoin="round"/>
<path d="M107.59 95.6749C119.896 95.274 129.859 85.2593 129.843 73.3065C129.827 61.3537 119.838 51.9891 107.532 52.39C95.2265 52.791 85.2633 62.8056 85.2791 74.7584C85.2875 81.1682 88.1639 86.8337 92.7277 90.648C93.0932 90.9535 93.4695 91.2471 93.856 91.5283L92.908 92.4895C92.3123 93.0841 91.8844 93.8167 91.668 94.6125C91.4517 95.4082 91.4546 96.2388 91.6765 97.0193C91.89 97.7949 92.3109 98.4959 92.897 99.0527L95.2747 101.29C95.9488 101.921 96.8261 102.313 97.7703 102.402C98.7146 102.492 99.6729 102.275 100.496 101.785C101.32 101.295 101.963 100.559 102.325 99.6925C102.687 98.8258 102.748 97.8763 102.499 96.9915L102.43 96.7429L103.694 95.4722C104.959 95.6476 106.261 95.7182 107.59 95.6749Z" fill="#FFD770" stroke="#0950BA" stroke-width="2.07514" stroke-linecap="round" stroke-linejoin="round"/>
<path d="M119.08 72.6117C118.26 72.6383 117.595 72.0161 117.594 71.2219C117.593 70.4278 118.257 69.7624 119.076 69.7357C119.896 69.7091 120.561 70.3313 120.562 71.1255C120.563 71.9197 119.9 72.585 119.08 72.6117Z" fill="#0950BA" stroke="#0950BA" stroke-width="1.38343" stroke-linecap="round" stroke-linejoin="round"/>
<path d="M110.223 72.6664C109.403 72.693 108.737 72.0708 108.736 71.2766C108.735 70.4825 109.399 69.8171 110.219 69.7904C111.039 69.7638 111.704 70.386 111.705 71.1802C111.706 71.9743 111.042 72.6397 110.223 72.6664Z" fill="#0950BA" stroke="#0950BA" stroke-width="1.38343" stroke-linecap="round" stroke-linejoin="round"/>
<g clip-path="url(#clip0_235_5712)">
<path d="M200.219 85.6267C199.574 85.6959 198.915 85.6362 198.357 85.3046C197.814 85.102 197.256 84.7703 196.685 84.3097L189.187 77.6767C189.044 77.5615 188.888 77.3173 188.731 77.0732C188.574 76.829 188.546 76.571 188.519 76.313C188.491 76.055 188.592 75.7832 188.565 75.5252C188.666 75.2533 188.781 75.1104 188.882 74.8386L192.724 70.5114C193.07 70.0829 193.572 69.8984 193.959 69.8569C194.217 69.8292 194.489 69.9305 194.747 69.9028C195.018 70.0041 195.161 70.1193 195.433 70.2206L200.189 74.4077C200.792 73.9514 201.553 73.7393 202.327 73.6562C203.23 73.5593 204.045 73.8632 204.746 74.31C205.446 74.7567 206.031 75.3464 206.515 76.2078C206.856 76.9542 207.082 77.8433 206.907 78.6451C206.733 79.4468 206.429 80.2623 205.853 80.9766L203.522 83.5757C203.048 84.0181 202.573 84.4605 201.956 84.7878C201.366 85.373 200.864 85.5574 200.219 85.6267Z" fill="#FFD770"/>
<path d="M200.219 85.6267C199.574 85.6959 198.915 85.6362 198.357 85.3046C197.814 85.102 197.256 84.7704 196.685 84.3097L189.187 77.6767C189.044 77.5615 188.888 77.3173 188.731 77.0732C188.574 76.829 188.546 76.571 188.519 76.313C188.491 76.055 188.592 75.7832 188.565 75.5252C188.666 75.2533 188.781 75.1104 188.882 74.8386L192.724 70.5114C193.07 70.0829 193.572 69.8984 193.959 69.8569C194.217 69.8292 194.489 69.9305 194.747 69.9028C195.018 70.0041 195.161 70.1193 195.433 70.2206L200.189 74.4077C200.792 73.9514 201.553 73.7393 202.327 73.6562C203.23 73.5593 204.045 73.8632 204.746 74.31C205.446 74.7567 206.031 75.3464 206.515 76.2078C206.856 76.9542 207.082 77.8433 206.907 78.6451C206.733 79.4468 206.429 80.2623 205.853 80.9766L203.522 83.5757C203.048 84.0181 202.573 84.4605 201.956 84.7878C201.366 85.373 200.864 85.5574 200.219 85.6267Z" stroke="#0950BA" stroke-width="2.23088" stroke-linecap="round" stroke-linejoin="round"/>
<path d="M183.186 42.4356C179.288 42.5931 175.399 44.0545 172.267 46.4786C169.134 48.9028 166.744 52.1607 165.583 55.939C163.791 56.2619 162.197 57.216 161.161 58.5017C160.009 59.9302 159.544 61.6765 159.595 63.3674C159.66 65.1873 160.485 66.7951 161.67 68.1034C162.983 69.3978 164.628 70.1346 166.333 70.2126C167.854 73.442 170.108 76.2014 173.066 78.2326C176.024 80.2639 179.416 81.4657 183.083 81.5939C186.622 81.736 190.192 80.9612 193.408 79.3111C196.624 77.6609 199.226 75.1632 201.115 72.0896C203.003 69.0161 203.933 65.5235 203.946 61.9988C203.959 58.4742 202.926 54.9313 201.161 51.8586C199.267 48.7996 196.654 46.3398 193.465 44.5943C190.29 42.9778 186.825 42.3058 183.186 42.4356Z" fill="#FFD770"/>
<path d="M183.186 42.4356C179.288 42.5931 175.399 44.0545 172.267 46.4786C169.134 48.9028 166.744 52.1607 165.583 55.939C163.791 56.2619 162.197 57.216 161.161 58.5017C160.009 59.9302 159.544 61.6765 159.595 63.3674C159.66 65.1873 160.485 66.7951 161.67 68.1034C162.983 69.3978 164.628 70.1346 166.333 70.2126C167.854 73.442 170.108 76.2014 173.066 78.2326C176.024 80.2639 179.416 81.4657 183.083 81.5939C186.622 81.736 190.192 80.9612 193.408 79.3111C196.624 77.6609 199.226 75.1632 201.115 72.0896C203.003 69.0161 203.933 65.5235 203.946 61.9988C203.959 58.4742 202.926 54.9313 201.161 51.8586C199.267 48.7996 196.654 46.3398 193.465 44.5943C190.29 42.9778 186.825 42.3058 183.186 42.4356Z" stroke="#0950BA" stroke-width="2.23088" stroke-linecap="round" stroke-linejoin="round"/>
<path d="M187.193 59.1077C187.838 59.0384 188.427 58.4532 188.358 57.8081C188.289 57.1631 187.704 56.5735 187.059 56.6428C186.414 56.712 185.824 57.2973 185.893 57.9423C185.962 58.5873 186.548 59.1769 187.193 59.1077Z" fill="#0950BA" stroke="#0950BA" stroke-width="1.47894"/>
<path d="M194.716 58.6858C195.361 58.6166 195.951 58.0313 195.882 57.3863C195.812 56.7413 195.227 56.1516 194.582 56.2209C193.937 56.2901 193.347 56.8754 193.417 57.5204C193.486 58.1654 194.071 58.755 194.716 58.6858Z" fill="#0950BA" stroke="#0950BA" stroke-width="1.47894"/>
<path d="M198.277 95.4927C198.019 95.5204 197.618 95.433 197.347 95.3317C197.075 95.2304 196.789 95.0001 196.632 94.7559L189.82 84.7869L175.289 85.564C175.031 85.5917 174.63 85.5043 174.358 85.403L171.884 84.2332C171.612 84.1319 171.312 83.7726 171.026 83.5423L163.209 70.2885C163.039 69.9153 162.61 69.5699 162.339 69.4686C161.924 69.2521 161.523 69.1647 161.136 69.2062L157.109 69.3775C156.593 69.4329 156.178 69.2165 155.75 68.871C155.321 68.5255 155.137 68.0234 155.095 67.6363L154.92 64.7844C154.864 64.2684 155.081 63.8537 155.426 63.4251C155.772 62.9966 156.274 62.8121 156.661 62.7706L160.817 62.5854C162.379 62.5482 163.982 62.8981 165.369 63.6626C166.756 64.4271 167.926 65.6064 168.724 66.9562L171.913 72.3554L187.993 71.412C188.767 71.3289 189.698 71.49 190.513 71.7939C191.329 72.0978 192.029 72.5446 192.601 73.0052C193.186 73.5949 193.771 74.1845 194.112 74.9308C194.454 75.6771 194.679 76.5663 194.763 77.3403L194.98 80.5793L202.105 91.0366C202.405 91.3959 202.46 91.9119 202.386 92.4417C202.313 92.9716 201.967 93.4002 201.594 93.5707L199.282 95.1239C199.037 95.2806 198.664 95.4512 198.277 95.4927ZM188.34 78.2908L188.285 77.7748L175.702 78.4732L176.015 78.9615L188.34 78.2908Z" fill="#B3D7FF"/>
<path d="M198.277 95.4927C198.019 95.5204 197.618 95.433 197.347 95.3317C197.075 95.2304 196.789 95.0001 196.632 94.7559L189.82 84.7869L175.289 85.564C175.031 85.5917 174.63 85.5043 174.358 85.403L171.884 84.2332C171.612 84.1319 171.312 83.7726 171.026 83.5423L163.209 70.2885C163.039 69.9153 162.61 69.5699 162.339 69.4686C161.924 69.2521 161.523 69.1647 161.136 69.2062L157.109 69.3775C156.593 69.4329 156.178 69.2165 155.75 68.871C155.321 68.5255 155.137 68.0234 155.095 67.6363L154.92 64.7844C154.864 64.2684 155.081 63.8537 155.426 63.4251C155.772 62.9966 156.274 62.8121 156.661 62.7706L160.817 62.5854C162.379 62.5482 163.982 62.8981 165.369 63.6626C166.756 64.4271 167.926 65.6064 168.724 66.9562L171.913 72.3554L187.993 71.412C188.767 71.3289 189.698 71.49 190.513 71.7939C191.329 72.0978 192.029 72.5446 192.601 73.0052C193.186 73.5949 193.771 74.1845 194.112 74.9308C194.454 75.6771 194.679 76.5663 194.763 77.3403L194.98 80.5793L202.105 91.0366C202.405 91.3959 202.46 91.9119 202.386 92.4417C202.313 92.9716 201.967 93.4002 201.594 93.5707L199.282 95.1239C199.037 95.2806 198.664 95.4512 198.277 95.4927ZM188.34 78.2908L188.285 77.7748L175.702 78.4732L176.015 78.9615L188.34 78.2908Z" stroke="#0950BA" stroke-width="2.23088" stroke-linecap="round" stroke-linejoin="round"/>
<path d="M199.228 98.2657C202.338 98.0623 204.784 95.3204 204.581 92.2105C204.378 89.1005 201.636 86.6546 198.526 86.858C195.416 87.0614 192.97 89.8033 193.173 92.9132C193.247 96.037 195.976 98.354 199.228 98.2657Z" fill="#FBFBEB"/>
<path d="M199.228 98.2657C202.338 98.0623 204.784 95.3204 204.581 92.2105C204.378 89.1005 201.636 86.6546 198.526 86.858C195.416 87.0614 192.97 89.8033 193.173 92.9132C193.247 96.037 195.976 98.354 199.228 98.2657Z" stroke="#0950BA" stroke-width="2.22958" stroke-linecap="round" stroke-linejoin="round"/>
<path d="M178.729 70.1938L174.887 74.521C174.427 75.0924 173.823 75.5487 173.077 75.8898C172.46 76.2171 171.7 76.4291 170.912 76.3832C170.138 76.4663 169.465 76.2776 168.663 76.1027C167.99 75.9139 167.29 75.4671 166.719 75.0065C166.147 74.5459 165.691 73.9424 165.35 73.1961C165.023 72.5788 164.81 71.8186 164.856 71.0307C164.773 70.2567 164.962 69.584 165.151 68.9113C165.34 68.2386 165.786 67.5381 166.247 66.9667L168.808 64.0819" fill="#FFD770"/>
<path d="M178.729 70.1938L174.887 74.521C174.427 75.0924 173.823 75.5487 173.077 75.8898C172.46 76.2171 171.7 76.4291 170.912 76.3832C170.138 76.4663 169.465 76.2776 168.663 76.1027C167.99 75.9139 167.29 75.4671 166.719 75.0065C166.147 74.5459 165.691 73.9424 165.35 73.1961C165.023 72.5788 164.81 71.8186 164.856 71.0307C164.773 70.2567 164.962 69.584 165.151 68.9113C165.34 68.2386 165.786 67.5381 166.247 66.9667L168.808 64.0819" stroke="#0950BA" stroke-width="2.23088" stroke-linecap="round" stroke-linejoin="round"/>
<path d="M170.348 77.2168C164.515 77.582 159.969 82.6373 160.334 88.4701C160.699 94.303 165.755 98.8495 171.588 98.4842C177.42 98.119 181.967 93.0638 181.602 87.2309C181.365 81.3841 176.31 76.8377 170.348 77.2168Z" fill="#FBFBEB"/>
<path d="M170.212 74.7591C167.618 74.9071 165.107 75.8291 163.053 77.3546C160.998 78.8801 159.414 81.138 158.502 83.5848C157.59 86.0315 157.494 88.7821 158.144 91.1917C158.808 93.7302 160.218 95.9276 162.103 97.6826C164.117 99.4238 166.462 100.607 169.098 100.846C171.747 101.214 174.313 100.808 176.668 99.6423C179.022 98.4761 180.92 96.7065 182.246 94.4762C183.573 92.246 184.212 89.6979 184.051 86.975C184 85.2841 183.548 83.5058 182.736 82.027C181.911 80.4191 180.985 79.0832 179.685 77.9178C178.386 76.7524 176.856 75.8727 175.225 75.2649C173.737 74.7722 172.018 74.5652 170.212 74.7591Z" fill="#FBFBEB"/>
<path d="M170.212 74.7591C167.618 74.9071 165.107 75.8291 163.053 77.3546C160.998 78.8801 159.414 81.138 158.502 83.5848C157.59 86.0315 157.494 88.7821 158.144 91.1917C158.808 93.7302 160.218 95.9276 162.103 97.6826C164.117 99.4238 166.462 100.607 169.098 100.846C171.747 101.214 174.313 100.808 176.668 99.6423C179.022 98.4761 180.92 96.7065 182.246 94.4762C183.573 92.246 184.212 89.6979 184.051 86.975C184 85.2841 183.548 83.5058 182.736 82.027C181.911 80.4191 180.985 79.0832 179.685 77.9178C178.386 76.7524 176.856 75.8727 175.225 75.2649C173.737 74.7722 172.018 74.5652 170.212 74.7591Z" stroke="#0950BA" stroke-width="2.22958" stroke-linecap="round" stroke-linejoin="round"/>
<path d="M170.838 87.869L170.125 75.1573" stroke="#0950BA" stroke-width="2.23088"/>
<path d="M170.839 87.8746L161.271 94.7739" stroke="#0950BA" stroke-width="2.23088"/>
<path d="M170.836 87.875L182.204 94.0926" stroke="#0950BA" stroke-width="2.23088"/>
<path d="M171.268 91.8644C173.475 91.758 175.23 89.8732 174.995 87.6801C174.889 85.4732 173.004 83.7182 170.811 83.9537C168.604 84.0601 166.849 85.9449 167.084 88.138C167.191 90.3449 169.062 91.9709 171.268 91.8644Z" fill="#0950BA"/>
<path d="M171.268 91.8644C173.475 91.758 175.23 89.8732 174.995 87.6801C174.889 85.4732 173.004 83.7182 170.811 83.9537C168.604 84.0601 166.849 85.9449 167.084 88.138C167.191 90.3449 169.062 91.9709 171.268 91.8644Z" stroke="#0950BA" stroke-width="2.23088" stroke-linecap="round" stroke-linejoin="round"/>
<path d="M153.93 61.6244L148.355 61.9619C146.922 61.9852 145.886 63.2709 145.909 64.7038L146.181 68.4588C146.205 69.8916 147.491 70.928 148.923 70.9047L154.498 70.5672C155.931 70.5439 156.968 69.2582 156.944 67.8253L156.672 64.0703C156.519 62.6512 155.349 61.472 153.93 61.6244Z" fill="#B3D7FF"/>
<path d="M153.93 61.6244L148.355 61.9619C146.922 61.9852 145.886 63.2709 145.909 64.7038L146.181 68.4588C146.205 69.8916 147.491 70.928 148.923 70.9047L154.498 70.5672C155.931 70.5439 156.968 69.2582 156.944 67.8253L156.672 64.0703C156.519 62.6512 155.349 61.472 153.93 61.6244Z" stroke="#0950BA" stroke-width="2.23088" stroke-linecap="round" stroke-linejoin="round"/>
</g>
<path d="M299.532 85.4366C300.295 85.4125 301.039 85.1977 301.698 84.8118C302.356 84.426 302.908 83.8814 303.302 83.2277C303.696 82.574 303.92 81.832 303.953 81.0695C303.987 80.307 303.829 79.5482 303.494 78.8624L307.022 75.0582C307.449 74.597 307.676 73.9851 307.652 73.357C307.628 72.7288 307.356 72.1357 306.896 71.708L303.092 68.1798C302.63 67.7533 302.018 67.5262 301.39 67.5475C301.079 67.5587 300.773 67.6315 300.49 67.7616C300.207 67.8918 299.952 68.0768 299.741 68.3059L293.658 74.865C293.205 75.3525 292.853 75.9245 292.621 76.5482C292.39 77.172 292.283 77.8354 292.308 78.5003C292.333 79.1652 292.489 79.8187 292.767 80.4232C293.045 81.0278 293.44 81.5717 293.928 82.0237L296.256 84.1832C296.693 84.5975 297.207 84.9215 297.769 85.1366C298.331 85.3517 298.93 85.4537 299.532 85.4366Z" fill="#FFD770" stroke="#0950BA" stroke-width="2.4342" stroke-linecap="round" stroke-linejoin="round"/>
<path d="M319.822 84.6737C320.709 84.6438 321.572 84.3821 322.326 83.9147L325.016 82.2309C325.874 81.6914 326.53 80.8836 326.882 79.933C327.234 78.9825 327.262 77.9423 326.962 76.974C326.662 76.0057 326.051 75.1635 325.223 74.5782C324.396 73.9929 323.398 73.6971 322.385 73.7369L322.101 73.7477C326.715 70.5359 330.017 65.7685 331.402 60.3196C332.786 54.8706 332.16 49.1053 329.639 44.0804C327.117 39.0556 322.869 35.1081 317.672 32.9616C312.476 30.8151 306.68 30.6136 301.348 32.3938C296.015 34.1741 291.503 37.8168 288.638 42.6543C285.773 47.4918 284.748 53.1997 285.751 58.7317C286.753 64.2637 289.716 69.249 294.096 72.7736C298.476 76.2982 303.98 78.1258 309.598 77.9215C310.528 77.8895 311.454 77.8017 312.373 77.6588L315.317 82.2954C315.791 83.0547 316.457 83.6749 317.249 84.0927C318.04 84.5105 318.928 84.711 319.822 84.6737Z" fill="#FFD770" stroke="#0950BA" stroke-width="2.4342" stroke-linecap="round" stroke-linejoin="round"/>
<path d="M321.588 53.1182C320.857 53.1458 320.242 52.5756 320.215 51.8448C320.187 51.114 320.757 50.4992 321.488 50.4717C322.219 50.4442 322.834 51.0143 322.861 51.7451C322.889 52.476 322.319 53.0907 321.588 53.1182Z" fill="#0950BA" stroke="#0950BA" stroke-width="1.6133"/>
<path d="M311.883 53.4854C311.152 53.5129 310.537 52.9428 310.51 52.212C310.482 51.4812 311.052 50.8664 311.783 50.8389C312.514 50.8114 313.129 51.3815 313.156 52.1123C313.184 52.8432 312.614 53.4579 311.883 53.4854Z" fill="#0950BA" stroke="#0950BA" stroke-width="1.6133"/>
<path d="M229.429 15.539C229.429 7.60264 235.862 1.16894 243.799 1.16894H295.637C301.987 1.16894 307.135 6.31699 307.135 12.6674C307.135 19.0179 301.987 24.1659 295.637 24.1659H229.429V15.539Z" fill="white"/>
<path d="M229.429 15.539C229.429 7.60264 235.862 1.16894 243.799 1.16894H295.637C301.987 1.16894 307.135 6.31699 307.135 12.6674C307.135 19.0179 301.987 24.1659 295.637 24.1659H229.429V15.539Z" stroke="#0950BA" stroke-width="1.91601"/>
<path d="M246.015 13.037V13.9043H244.373V16.4387H243.278V13.9043H241.712V16.4387H240.609V13.9043H239.001V13.037H246.015ZM239.708 10.7636C239.704 9.70694 240.841 9.03335 242.487 9.02914C244.133 9.03335 245.282 9.70694 245.282 10.7636C245.282 11.7951 244.133 12.4518 242.487 12.4476C240.841 12.4518 239.704 11.7951 239.708 10.7636ZM240.811 10.7636C240.807 11.3025 241.46 11.6014 242.487 11.6056C243.523 11.6014 244.171 11.3025 244.171 10.7636C244.171 10.1995 243.523 9.89218 242.487 9.88797C241.46 9.89218 240.807 10.1995 240.811 10.7636ZM248.481 9.31541C249.651 9.31541 250.498 10.3721 250.502 12.0435C250.498 13.7275 249.651 14.78 248.481 14.78C247.306 14.78 246.456 13.7275 246.46 12.0435C246.456 10.3721 247.306 9.31541 248.481 9.31541ZM247.496 12.0435C247.496 13.1844 247.896 13.8075 248.481 13.8033C249.079 13.8075 249.47 13.1844 249.475 12.0435C249.47 10.9068 249.079 10.2837 248.481 10.2837C247.896 10.2837 247.496 10.9068 247.496 12.0435ZM251.386 16.4387V8.77654H252.464V11.6646H253.592V12.5571H252.464V16.4387H251.386ZM256.597 11.1762C256.597 12.2666 257.161 13.4959 258.382 14.0727L257.784 14.881C256.963 14.5105 256.395 13.7906 256.075 12.936C255.742 13.858 255.14 14.6326 254.273 15.0157L253.684 14.1822C254.934 13.6306 255.528 12.3255 255.536 11.1762V10.8815H253.953V10.0227H255.528V8.94494H256.605V10.0227H258.163V10.8815H256.597V11.1762ZM258.794 16.4387V8.77654H259.872V11.7488H261V12.6497H259.872V16.4387H258.794ZM267.458 10.8647V11.7067H262.102V9.04598H263.172V10.8647H267.458ZM261.227 13.3738V12.5318H268.241V13.3738H261.227ZM262.035 16.2703V13.9969H263.113V15.4115H267.508V16.2703H262.035ZM272.701 9.31541C273.737 9.31541 274.511 10.1658 274.663 11.5467H275.993V8.77654H277.054V16.4555H275.993V12.4055H274.676C274.562 13.879 273.771 14.78 272.701 14.78C271.539 14.78 270.706 13.7275 270.714 12.0435C270.706 10.3721 271.539 9.31541 272.701 9.31541ZM271.741 12.0435C271.737 13.1844 272.129 13.8075 272.701 13.8033C273.278 13.8075 273.661 13.1844 273.661 12.0435C273.661 10.9068 273.278 10.2837 272.701 10.2837C272.129 10.2837 271.737 10.9068 271.741 12.0435ZM284.614 8.77654V16.4387H283.528V12.2624H282.577V11.3951H283.528V8.77654H284.614ZM277.836 14.098C278.805 13.378 278.939 12.0182 278.939 10.7636V10.3174H278.131V9.45855H280.413V10.3174H279.958V10.7636C279.95 11.6604 280.038 12.7129 280.543 13.5212C281.036 12.7213 281.124 11.6688 281.129 10.7636V10.3174H280.674V9.45855H282.838V10.3174H282.164V10.7636C282.156 12.0351 282.291 13.3696 283.259 14.098L282.594 14.8557C282.097 14.4811 281.794 13.9085 281.608 13.2349C281.411 13.9338 281.082 14.5442 280.548 14.9399C280.009 14.5442 279.676 13.9464 279.474 13.2644C279.297 13.9211 278.998 14.4853 278.51 14.8557L277.836 14.098ZM288.377 10.8647C288.373 12.1024 289.013 13.4286 290.297 13.9632L289.716 14.8052C288.815 14.4221 288.192 13.6601 287.847 12.7339C287.501 13.7401 286.866 14.5821 285.961 14.9989L285.346 14.1485C286.617 13.5801 287.274 12.1614 287.274 10.8647V10.3932H285.649V9.51749H289.977V10.3932H288.377V10.8647ZM290.735 16.4387V8.77654H291.821V16.4387H290.735ZM294.152 13.7443C294.156 12.696 294.438 12.3761 294.944 12.0603C295.306 11.8246 295.588 11.5635 295.584 11.1762C295.588 10.7552 295.259 10.4816 294.851 10.4774C294.46 10.4816 294.093 10.7426 294.076 11.2352H292.881C292.902 10.0522 293.782 9.48381 294.859 9.48381C296.034 9.48381 296.863 10.0943 296.863 11.1341C296.863 11.8288 296.506 12.2666 295.954 12.5992C295.478 12.8813 295.268 13.1549 295.264 13.7443V13.8369H294.152V13.7443ZM294.026 15.0326C294.017 14.6452 294.337 14.3295 294.733 14.3337C295.108 14.3295 295.432 14.6452 295.432 15.0326C295.432 15.4241 295.108 15.7398 294.733 15.7398C294.337 15.7398 294.017 15.4241 294.026 15.0326Z" fill="#0950BA"/>
<path d="M75.958 30.3315C75.958 23.9811 81.1061 18.833 87.4565 18.833H155.151C163.087 18.833 169.521 25.2667 169.521 33.2031V41.83H87.4565C81.1061 41.83 75.958 36.6819 75.958 30.3315Z" fill="white"/>
<path d="M75.958 30.3315C75.958 23.9811 81.1061 18.833 87.4565 18.833H155.151C163.087 18.833 169.521 25.2667 169.521 33.2031V41.83H87.4565C81.1061 41.83 75.958 36.6819 75.958 30.3315Z" stroke="#0950BA" stroke-width="1.91601"/>
<path d="M92.551 26.449V30.3643H91.5322V26.449H92.551ZM86.0003 28.4951C85.9961 27.4594 86.7328 26.7858 87.76 26.7942C88.6231 26.7858 89.2883 27.2615 89.4819 28.032H90.0082V26.5753H91.0017V30.3306H90.0082V28.8992H89.4903C89.3135 29.6739 88.6399 30.1875 87.76 30.1875C86.7328 30.1875 85.9961 29.4886 86.0003 28.4951ZM86.9602 28.4951C86.9559 29.0213 87.2885 29.3329 87.76 29.3371C88.2274 29.3329 88.5684 29.0213 88.5768 28.4951C88.5684 27.9436 88.2274 27.6152 87.76 27.611C87.2885 27.6152 86.9559 27.9436 86.9602 28.4951ZM87.3054 31.4673V30.6422H92.551V32.6966H88.4V33.1766H92.812V34.0186H87.3138V31.9136H91.4732V31.4673H87.3054ZM99.7996 26.4406V34.1196H98.7302V26.4406H99.7996ZM93.7793 27.9478V27.0805H97.4251V30.0359H94.8992V31.4421C96.0695 31.4336 97.0589 31.3747 98.1829 31.1895L98.2756 32.0567C97.0168 32.2798 95.8759 32.3262 94.4782 32.3262H93.7877V29.1855H96.3306V27.9478H93.7793ZM102.013 27.131V28.9076H103.074V27.131H104.051V29.236H104.817V26.5669H105.827V33.766H104.817V30.1117H104.051V32.2841H101.003V27.131H102.013ZM102.013 31.4084H103.074V29.7581H102.013V31.4084ZM106.4 34.1028V26.4406H107.427V34.1028H106.4ZM114.608 26.4406V34.1196H113.522V26.4406H114.608ZM108.42 29.7075C108.415 28.0362 109.27 26.9795 110.449 26.9795C111.602 26.9795 112.461 28.0362 112.461 29.7075C112.461 31.3915 111.602 32.444 110.449 32.444C109.27 32.444 108.415 31.3915 108.42 29.7075ZM109.455 29.7075C109.451 30.8484 109.851 31.4715 110.449 31.4673C111.03 31.4715 111.421 30.8484 111.426 29.7075C111.421 28.5708 111.03 27.9478 110.449 27.9478C109.851 27.9478 109.451 28.5708 109.455 29.7075ZM122.067 26.4406V34.1196H121.006V30.0107H119.659V29.1434H121.006V26.4406H122.067ZM115.954 32.3851V27.0805H119.533V27.9478H117.024V29.2192H119.255V30.0612H117.024V31.5094C118.089 31.501 118.939 31.4631 119.887 31.3158L119.996 32.1746C118.876 32.343 117.874 32.3809 116.561 32.3851H115.954ZM129.055 26.4406V29.3792H130.141V30.2633H129.055V34.0859H127.977V26.4406H129.055ZM122.925 31.9388C124.74 31.0295 125.716 29.8086 125.918 28.0993H123.363V27.2237H127.009C127 29.5139 126.108 31.4968 123.531 32.764L122.925 31.9388ZM135.149 31.3579C135.149 31.9725 135.41 32.6124 136.029 33.0334C136.665 32.583 136.942 31.9262 136.942 31.3579V31.0968H138.003V31.3579C137.995 32.1578 138.42 32.8945 139.443 33.2102L138.921 33.9933C138.189 33.7449 137.709 33.2776 137.443 32.684C137.191 33.2776 136.744 33.7912 136.058 34.0607C135.338 33.7996 134.888 33.3029 134.64 32.7135C134.366 33.2818 133.894 33.7449 133.195 33.9933L132.665 33.2102C133.671 32.865 134.101 32.103 134.105 31.3579V31.0968H135.149V31.3579ZM132.48 28.6803C132.48 27.5941 133.381 26.8363 134.576 26.8363C135.768 26.8363 136.669 27.5941 136.673 28.6803C136.669 29.7454 135.768 30.5116 134.576 30.5074C133.381 30.5116 132.48 29.7454 132.48 28.6803ZM133.532 28.6803C133.524 29.2571 133.962 29.6191 134.576 29.6149C135.174 29.6191 135.608 29.2571 135.612 28.6803C135.608 28.0867 135.174 27.7373 134.576 27.7373C133.962 27.7373 133.524 28.0867 133.532 28.6803ZM137.7 30.7769V26.449H138.778V30.7769H137.7ZM143.265 26.5501C145.029 26.5501 146.048 27.0132 146.052 27.8552C146.048 28.7098 145.029 29.1687 143.265 29.1687C141.497 29.1687 140.469 28.7098 140.469 27.8552C140.469 27.0132 141.497 26.5501 143.265 26.5501ZM139.77 30.3811V29.5307H146.759V30.3811H139.77ZM140.579 31.6105V30.8274H145.909V32.7808H141.64V33.2439H146.111V34.0522H140.587V32.0315H144.848V31.6105H140.579ZM141.598 27.8552C141.593 28.2298 142.141 28.3772 143.265 28.3772C144.397 28.3772 144.94 28.2298 144.94 27.8552C144.94 27.5141 144.397 27.3331 143.265 27.3331C142.141 27.3331 141.593 27.5141 141.598 27.8552ZM153.317 26.4406V29.4465H154.336V30.3306H153.317V34.1028H152.239V26.4406H153.317ZM147.027 31.8799C148.072 30.7474 148.375 29.6276 148.442 28.0993H147.364V27.2237H149.469C149.461 29.3286 149.242 30.9705 147.869 32.4777L147.027 31.8799ZM149.191 32.3767C150.231 31.0968 150.518 29.7833 150.576 28.0993H149.722V27.2237H151.591C151.587 29.4086 151.397 31.3073 150.042 32.9745L149.191 32.3767ZM155.926 31.4084C155.931 30.3601 156.213 30.0401 156.718 29.7244C157.08 29.4886 157.362 29.2276 157.358 28.8403C157.362 28.4193 157.034 28.1456 156.625 28.1414C156.234 28.1456 155.867 28.4067 155.851 28.8992H154.655C154.676 27.7162 155.556 27.1479 156.634 27.1479C157.808 27.1479 158.638 27.7583 158.638 28.7982C158.638 29.4928 158.28 29.9307 157.728 30.2633C157.252 30.5453 157.042 30.819 157.038 31.4084V31.501H155.926V31.4084ZM155.8 32.6966C155.792 32.3093 156.112 31.9936 156.507 31.9978C156.882 31.9936 157.206 32.3093 157.206 32.6966C157.206 33.0882 156.882 33.4039 156.507 33.4039C156.112 33.4039 155.792 33.0882 155.8 32.6966Z" fill="#0950BA"/>
<path d="M231.549 90.1941C232.251 90.1301 232.933 89.8968 233.53 89.5155C234.128 89.1341 234.623 88.6169 234.97 88.011C235.317 87.4051 235.505 86.7298 235.517 86.0467C235.529 85.3636 235.365 84.6945 235.039 84.1005L238.198 80.5056C238.581 80.0699 238.775 79.5106 238.737 78.9508C238.7 78.3909 238.435 77.8762 237.999 77.5196L234.405 74.5791C233.969 74.2238 233.4 74.0548 232.821 74.1088C232.534 74.1361 232.254 74.2181 231.996 74.3501C231.738 74.4822 231.508 74.6616 231.319 74.878L225.873 81.0761C225.467 81.5367 225.156 82.0673 224.958 82.6375C224.76 83.2076 224.678 83.8062 224.718 84.3988C224.757 84.9915 224.917 85.5666 225.188 86.0912C225.459 86.6159 225.836 87.0799 226.298 87.4565L228.498 89.2564C228.91 89.6022 229.392 89.8631 229.916 90.024C230.439 90.1849 230.994 90.2427 231.549 90.1941Z" fill="#FFD770" stroke="#0950BA" stroke-width="2.17448" stroke-linecap="round" stroke-linejoin="round"/>
<path d="M249.851 88.2832C250.667 88.2072 251.457 87.9254 252.14 87.4659L254.579 85.8119C255.357 85.2821 255.942 84.524 256.243 83.6551C256.544 82.7862 256.544 81.8553 256.244 81.0069C255.944 80.1584 255.36 79.4399 254.582 78.963C253.805 78.486 252.877 78.2773 251.945 78.3692L251.683 78.3946C255.858 75.2685 258.785 70.8254 259.927 65.88C261.069 60.9346 260.35 55.8183 257.901 51.4691C255.452 47.1198 251.438 43.8291 246.594 42.2002C241.75 40.5714 236.401 40.7135 231.528 42.6006C226.655 44.4877 222.584 47.9932 220.062 52.4746C217.54 56.9559 216.736 62.1127 217.796 66.9996C218.857 71.8864 221.712 76.1758 225.837 79.0813C229.963 81.9869 235.082 83.3138 240.258 82.8189C241.114 82.7386 241.966 82.6086 242.81 82.4298L245.639 86.4088C246.094 87.0609 246.724 87.5779 247.464 87.9072C248.204 88.2365 249.027 88.3662 249.851 88.2832Z" fill="#FFD770" stroke="#0950BA" stroke-width="2.17448" stroke-linecap="round" stroke-linejoin="round"/>
<path d="M247.604 58.0219C246.802 58.0997 246.109 57.5334 246.058 56.7572C246.006 55.981 246.614 55.2887 247.417 55.211C248.219 55.1333 248.911 55.6996 248.963 56.4758C249.014 57.252 248.406 57.9442 247.604 58.0219Z" fill="#0950BA" stroke="#0950BA" stroke-width="1.44966" stroke-linecap="round" stroke-linejoin="round"/>
<path d="M239.018 58.7173C238.216 58.795 237.523 58.2287 237.472 57.4525C237.42 56.6763 238.028 55.984 238.831 55.9063C239.633 55.8286 240.325 56.3949 240.377 57.1711C240.429 57.9473 239.82 58.6395 239.018 58.7173Z" fill="#0950BA" stroke="#0950BA" stroke-width="1.44966" stroke-linecap="round" stroke-linejoin="round"/>
<path d="M270.914 76.8699C276.187 76.3592 280.185 71.8095 279.845 66.7079C279.506 61.6063 274.956 57.8847 269.683 58.3955C264.411 58.9063 260.412 63.456 260.752 68.5575C261.092 73.6591 265.642 77.3807 270.914 76.8699Z" fill="#FFD770" stroke="#0950BA" stroke-width="1.90554" stroke-linecap="round" stroke-linejoin="round"/>
<path d="M274.289 67.5336C273.445 67.6153 272.717 67.0199 272.663 66.2036C272.608 65.3873 273.248 64.6594 274.092 64.5777C274.935 64.4959 275.663 65.0914 275.718 65.9077C275.772 66.7239 275.132 67.4519 274.289 67.5336Z" fill="#0950BA"/>
<path d="M269.275 67.932C268.431 68.0138 267.703 67.4183 267.649 66.602C267.595 65.7858 268.234 65.0578 269.078 64.9761C269.922 64.8944 270.65 65.4898 270.704 66.3061C270.758 67.1224 270.119 67.8503 269.275 67.932Z" fill="#0950BA"/>
<path d="M258.998 75.9951L258.896 74.25L279.609 71.9411L279.71 73.6863C280.017 78.9944 275.617 83.8393 269.912 84.4753C264.206 85.1113 259.305 81.3032 258.998 75.9951Z" fill="white"/>
<path d="M258.998 75.9951L260.121 75.8549L258.998 75.9951ZM258.896 74.25L258.846 73.1189L257.707 73.2459L257.773 74.3903L258.896 74.25ZM279.609 71.9411L280.733 71.8009L280.668 70.6863L279.559 70.81L279.609 71.9411ZM279.71 73.6863L280.834 73.546L279.71 73.6863ZM260.121 75.8549L260.02 74.1097L257.773 74.3903L257.874 76.1354L260.121 75.8549ZM258.947 75.3811L279.66 73.0722L279.559 70.81L258.846 73.1189L258.947 75.3811ZM278.485 72.0814L278.587 73.8265L280.834 73.546L280.733 71.8009L278.485 72.0814ZM278.587 73.8265C278.853 78.4235 275.024 82.7686 269.861 83.3442L269.962 85.6064C276.21 84.9099 281.182 79.5653 280.834 73.546L278.587 73.8265ZM269.861 83.3442C264.689 83.9207 260.388 80.4666 260.121 75.8549L257.874 76.1354C258.222 82.1399 263.722 86.3019 269.962 85.6064L269.861 83.3442Z" fill="#0950BA"/>
<path d="M252.124 72.2683C251.588 64.2136 257.446 57.0384 265.171 56.29L266.239 72.3246L278.984 71.0897L279.11 72.9812C279.493 78.7346 273.796 84.0062 266.423 84.7206C259.05 85.435 252.728 81.3279 252.344 75.5745L252.124 72.2683Z" fill="#A8CBF2" stroke="#0950BA" stroke-width="1.90554" stroke-linecap="round" stroke-linejoin="round"/>
<path d="M250.765 72.3107L250.923 72.3028L251.071 72.2441C252.679 71.6077 254.425 72.5366 254.882 74.3456C254.882 74.3466 254.883 74.3475 254.883 74.3484L256.819 82.2441C257.141 83.7477 258.609 84.6484 260.114 84.1811C261.632 83.7864 262.465 82.2203 262.063 80.7503L260.125 72.8471C260.125 72.847 260.125 72.8469 260.125 72.8468C259.023 68.347 254.691 65.5428 250.287 66.6633C249.948 66.7494 249.611 66.8587 249.275 66.9917C246.323 68.1164 247.11 72.4928 250.241 72.3368L250.765 72.3107Z" fill="#FFD770" stroke="#0950BA" stroke-width="1.90554" stroke-miterlimit="10"/>
<path d="M260.5 87.8851C262.961 87.6468 264.827 85.5236 264.668 83.1428C264.51 80.7621 262.386 79.0254 259.926 79.2637C257.465 79.5021 255.599 81.6253 255.758 84.006C255.916 86.3868 258.04 88.1235 260.5 87.8851Z" fill="#FFD770" stroke="#0950BA" stroke-width="1.90554" stroke-linecap="round" stroke-linejoin="round"/>
<path d="M275.553 86.6976C278.013 86.4593 279.879 84.3361 279.721 81.9553C279.562 79.5746 277.439 77.8379 274.979 78.0762C272.518 78.3146 270.652 80.4378 270.811 82.8185C270.969 85.1993 273.092 86.936 275.553 86.6976Z" fill="#FFD770" stroke="#0950BA" stroke-width="1.90554" stroke-linecap="round" stroke-linejoin="round"/>
<defs>
<clipPath id="clip0_235_5712">
<rect width="65.2904" height="62.762" fill="white" transform="translate(140.729 44.0391) rotate(-6.12764)"/>
</clipPath>
</defs>
</svg>
